<svg width="20" height="20" viewBox="0 0 20 20" fill="none" xmlns="http://www.w3.org/2000/svg">
<path fill-rule="evenodd" clip-rule="evenodd" d="M15.0003 3.33332H5.00033C4.07985 3.33332 3.33366 4.07952 3.33366 4.99999V15C3.33366 15.9205 4.07985 16.6667 5.00033 16.6667H15.0003C15.9208 16.6667 16.667 15.9205 16.667 15V4.99999C16.667 4.07952 15.9208 3.33332 15.0003 3.33332ZM5.00033 1.66666C3.15938 1.66666 1.66699 3.15904 1.66699 4.99999V15C1.66699 16.8409 3.15938 18.3333 5.00033 18.3333H15.0003C16.8413 18.3333 18.3337 16.8409 18.3337 15V4.99999C18.3337 3.15904 16.8413 1.66666 15.0003 1.66666H5.00033Z" fill="#1D1D1B"/>
<path d="M8.33333 11.5833L6.16667 9.41668L5 10.5833L8.33333 13.9167L15 7.25001L13.8333 6.08334L8.33333 11.5833Z" fill="#1D1D1B"/>
</svg>
